<svg width="65" height="88" viewBox="0 0 65 88" fill="none" xmlns="http://www.w3.org/2000/svg">
<path fill-rule="evenodd" clip-rule="evenodd" d="M5.58004 22.3403L36.7327 2.32704C35.8831 1.82356 33.9762 0.703326 33.1454 0.250196C32.3147 -0.202933 31.4147 0.0613923 31.0686 0.250196C21.7228 6.13458 2.71022 18.1299 1.42636 19.0362C0.142491 19.9424 -0.052606 21.0501 0.0103287 21.4906V68.1252C0.0103287 69.258 1.7725 70.6741 2.65358 71.2405C11.6847 76.464 29.9924 87.0622 30.9742 87.6664C31.9559 88.2706 33.1454 87.9181 33.6174 87.6664C42.8059 82.1596 61.466 70.9195 62.5988 70.0132C63.7317 69.107 64.0149 67.4959 64.0149 66.8036V21.585C64.0149 20.3012 62.882 19.0991 62.3156 18.6586C55.8334 14.851 42.7555 7.1793 42.3024 6.95273C41.8493 6.72617 41.4843 6.85833 41.3584 6.95273C37.6452 9.31278 30.0301 14.1839 29.2749 14.7881C28.5197 15.3923 28.9603 16.2356 29.2749 16.5817C34.1524 19.4138 44.2282 25.2478 45.5121 25.9275C46.7959 26.6072 47.998 26.3995 48.4385 26.2107L52.3931 23.6949C48.1135 21.2404 39.5355 16.1805 38.7048 15.5763C37.8741 14.9721 38.2211 13.3837 38.6104 12.8387C38.8668 12.4797 39.0052 12.3432 39.314 12.0386C39.3842 11.9694 39.4632 11.8914 39.5544 11.8002C40.1208 11.2338 41.0437 11.547 41.5472 11.7672C47.2428 15.1028 58.7283 21.8494 59.106 22.1514C59.4836 22.4535 59.578 22.9696 59.578 23.1899V25.5499C59.578 26.0786 59.3892 26.3995 59.2948 26.4939C55.8648 28.6337 48.7595 33.0266 47.7777 33.4797C46.7959 33.9328 45.5435 33.6685 45.0401 33.4797C37.4564 29.326 22.1381 20.9431 21.534 20.641C20.9298 20.3389 20.527 20.5152 20.4011 20.641C17.8838 22.3088 12.698 25.7387 12.0938 26.1163C11.4896 26.4939 11.3386 27.2806 11.3386 27.6268V34.8957C11.3386 35.4999 11.842 36.0285 12.0938 36.2173C21.6169 41.5789 36.979 50.0101 47.4931 55.7806L47.4933 55.7806C54.072 59.3913 58.7527 61.9602 58.9171 62.0835C59.2948 62.3667 59.4836 63.6254 59.4836 63.7827V66.2372C59.4836 66.7658 59.1689 67.1497 59.0116 67.2756C50.9874 72.1216 34.7502 81.9268 33.995 82.3799C33.2398 82.833 31.9182 82.5687 31.3518 82.3799C23.2332 77.8486 6.80727 68.6539 6.05205 68.1252C5.29684 67.5965 5.10803 66.898 5.10803 66.6148V23.6619C5.10803 22.9067 5.42271 22.4661 5.58004 22.3403ZM11.517 44.3411L11.6114 64.26L11.6115 64.2637C11.6129 64.4308 11.6148 64.6503 12.0041 65.1052C12.1738 65.3034 12.3866 65.459 12.6125 65.5898L32.0022 76.8154C32.5687 77.0986 33.2295 77.0986 33.7015 76.8154L51.5534 65.9322C51.9298 65.6598 52.1161 65.5249 52.1091 65.4011C52.1022 65.2797 51.9096 65.1689 51.5285 64.9495L12.0834 43.5859C11.8406 43.4645 11.7018 43.3951 11.6226 43.4374C11.517 43.4936 11.517 43.748 11.517 44.3411ZM17.0878 56.1099L16.8091 59.7333C16.7536 60.4557 17.1163 61.1463 17.7428 61.5104L34.9673 71.5226C35.5354 71.8529 36.2344 71.864 36.8128 71.5519L40.8326 69.3825C41.4435 69.0527 41.8163 68.4066 41.7959 67.7126C41.7867 67.4025 41.6992 67.0997 41.5413 66.8325L41.4267 66.6386C41.2575 66.3522 41.0156 66.1156 40.7255 65.9527L20.3162 54.4949C19.8857 54.2532 19.3778 54.1898 18.9011 54.3181L18.4795 54.4316C17.7068 54.6396 17.1492 55.3121 17.0878 56.1099ZM22.6564 27.1878C20.7767 26.1025 18.4552 26.6297 17.3699 28.5094C16.2847 30.3891 17.1895 32.5218 19.0692 33.6071L54.9419 53.2427C56.8216 54.328 58.6493 54.084 59.7346 52.2043C60.8198 50.3246 60.2201 47.9086 58.3404 46.8234L22.6564 27.1878ZM56.2417 40.6655C58.1708 40.6655 59.7346 39.1017 59.7346 37.1726C59.7346 35.2435 58.1708 33.6797 56.2417 33.6797C54.3127 33.6797 52.7488 35.2435 52.7488 37.1726C52.7488 39.1017 54.3127 40.6655 56.2417 40.6655Z" fill="#EF4444"/>
</svg>
